<svg width="24" height="24" viewBox="0 0 24 24" fill="none" xmlns="http://www.w3.org/2000/svg">
<path d="M11.6666 6.26111V9.49861" stroke="currentColor" stroke-width="1.75" stroke-miterlimit="10" stroke-linecap="round"/>
<path d="M11.6861 1.94444C8.10836 1.94444 5.21113 4.84166 5.21113 8.41944V10.4611C5.21113 11.1222 4.93891 12.1139 4.59863 12.6778L3.36391 14.7389C2.60558 16.0125 3.13058 17.4319 4.53058 17.8986C9.1778 19.4444 14.2042 19.4444 18.8514 17.8986C20.1639 17.4611 20.7278 15.925 20.0181 14.7389L18.7834 12.6778C18.4431 12.1139 18.1709 11.1125 18.1709 10.4611V8.41944C18.1611 4.86111 15.2445 1.94444 11.6861 1.94444Z" stroke="currentColor" stroke-width="1.75" stroke-miterlimit="10" stroke-linecap="round"/>
<path d="M14.9041 18.2972C14.9041 20.0764 13.4457 21.5347 11.6666 21.5347C10.7819 21.5347 9.96519 21.1653 9.38185 20.5819C8.79852 19.9986 8.42908 19.1819 8.42908 18.2972" stroke="currentColor" stroke-width="1.75" stroke-miterlimit="10"/>
</svg>
