<svg width="24" height="24" viewBox="0 0 24 24" fill="none" xmlns="http://www.w3.org/2000/svg">
<path d="M3.84016 12C3.84016 7.488 7.48816 3.84 12.0002 3.84C16.5122 3.84 20.1602 7.488 20.1602 12C20.1602 16.512 16.5122 20.16 12.0002 20.16C7.48816 20.16 3.84016 16.512 3.84016 12ZM19.2002 12C19.2002 8.016 15.9842 4.8 12.0002 4.8C8.01616 4.8 4.80016 8.016 4.80016 12C4.80016 15.984 8.01616 19.2 12.0002 19.2C15.9842 19.2 19.2002 15.984 19.2002 12Z" fill="currentColor"/>
<path d="M11.1837 15.984L15.1677 12L11.1837 8.01599L11.8557 7.34399L16.5117 12L11.8557 16.656L11.1837 15.984Z" fill="currentColor"/>
<path d="M15.8398 11.52V12.48H7.67984V11.52H15.8398Z" fill="currentColor"/>
</svg>
