<svg width="22" height="20" viewBox="0 0 22 20" fill="none" xmlns="http://www.w3.org/2000/svg">
<path d="M21 8.85715C21 5.32015 21 3.55115 19.947 2.37015C19.7774 2.18043 19.5917 2.00577 19.392 1.84815C18.138 0.857147 16.26 0.857147 12.5 0.857147H9.5C5.741 0.857147 3.862 0.857147 2.607 1.84715C2.40633 2.00715 2.22167 2.18148 2.053 2.37015C1 3.55015 1 5.32015 1 8.85715C1 12.3941 1 14.1631 2.053 15.3441C2.22167 15.5335 2.40633 15.7075 2.607 15.8661C3.862 16.8571 5.741 16.8571 9.5 16.8571H11M17.5 18.8571V11.8571M14 15.3571H21M4.5 8.85715H4.491" stroke="currentColor" stroke-width="1.5" stroke-linecap="round" stroke-linejoin="round"/>
<path d="M13.5 8.85715C13.5 9.52019 13.2366 10.1561 12.7678 10.6249C12.2989 11.0938 11.663 11.3571 11 11.3571C10.337 11.3571 9.70107 11.0938 9.23223 10.6249C8.76339 10.1561 8.5 9.52019 8.5 8.85715C8.5 8.19411 8.76339 7.55822 9.23223 7.08938C9.70107 6.62054 10.337 6.35715 11 6.35715C11.663 6.35715 12.2989 6.62054 12.7678 7.08938C13.2366 7.55822 13.5 8.19411 13.5 8.85715Z" stroke="currentColor" stroke-width="1.5" stroke-linecap="round" stroke-linejoin="round"/>
</svg>
