<svg width="52" height="52" viewBox="0 0 52 52" fill="none" xmlns="http://www.w3.org/2000/svg">
<rect x="0.800781" y="0.5" width="51" height="51" rx="25.5" fill="#FFD7BF"/>
<path d="M10.3323 25.8309C10.3323 24.7143 10.5738 23.7212 11.057 22.8515C11.5401 21.9711 12.2112 21.2893 13.0701 20.8061C13.9398 20.3122 14.9223 20.0653 16.0174 20.0653C17.3595 20.0653 18.5084 20.4196 19.4639 21.1282C20.4195 21.8368 21.0584 22.8032 21.3805 24.0272H18.3527C18.1272 23.5547 17.8051 23.1951 17.3864 22.9481C16.9784 22.7012 16.5113 22.5777 15.9852 22.5777C15.137 22.5777 14.4498 22.8729 13.9237 23.4635C13.3976 24.054 13.1346 24.8432 13.1346 25.8309C13.1346 26.8187 13.3976 27.6079 13.9237 28.1984C14.4498 28.7889 15.137 29.0842 15.9852 29.0842C16.5113 29.0842 16.9784 28.9607 17.3864 28.7138C17.8051 28.4668 18.1272 28.1072 18.3527 27.6347H21.3805C21.0584 28.8587 20.4195 29.8251 19.4639 30.5337C18.5084 31.2316 17.3595 31.5805 16.0174 31.5805C14.9223 31.5805 13.9398 31.3389 13.0701 30.8558C12.2112 30.3619 11.5401 29.6801 11.057 28.8104C10.5738 27.9407 10.3323 26.9476 10.3323 25.8309ZM30.4271 20.1941V22.4005H25.821V24.7841H29.2675V26.9261H25.821V31.5H23.067V20.1941H30.4271ZM38.9126 29.5029H34.693L34.0166 31.5H31.1337L35.2244 20.1941H38.4133L42.504 31.5H39.589L38.9126 29.5029ZM38.2039 27.3771L36.8028 23.238L35.4177 27.3771H38.2039Z" fill="#FD853A"/>
</svg>
