<svg width="19" height="19" viewBox="0 0 19 19" fill="none" xmlns="http://www.w3.org/2000/svg">
<path d="M16.0625 4.39583C16.0625 5.60396 13.1244 6.58333 9.5 6.58333C5.87563 6.58333 2.9375 5.60396 2.9375 4.39583M16.0625 4.39583C16.0625 3.18771 13.1244 2.20833 9.5 2.20833C5.87563 2.20833 2.9375 3.18771 2.9375 4.39583M16.0625 4.39583V14.6042C16.0625 15.8146 13.1458 16.7917 9.5 16.7917C5.85417 16.7917 2.9375 15.8146 2.9375 14.6042V4.39583M16.0625 9.5C16.0625 10.7104 13.1458 11.6875 9.5 11.6875C5.85417 11.6875 2.9375 10.7104 2.9375 9.5" stroke="currentColor" stroke-width="1.45833" stroke-linecap="round" stroke-linejoin="round"/>
</svg>
