<svg width="52" height="52" viewBox="0 0 52 52" fill="none" xmlns="http://www.w3.org/2000/svg">
<rect x="0.400391" y="0.5" width="51" height="51" rx="25.5" fill="#FFD7BF"/>
<path fill-rule="evenodd" clip-rule="evenodd" d="M27.2421 15.2631C27.2421 14.9072 27.1007 14.5658 26.849 14.3141C26.5973 14.0624 26.2559 13.921 25.9 13.921C25.544 13.921 25.2027 14.0624 24.951 14.3141C24.6993 14.5658 24.5579 14.9072 24.5579 15.2631V16.6052C23.1341 16.6052 21.7686 17.1708 20.7618 18.1776C19.7551 19.1844 19.1895 20.5499 19.1895 21.9737C19.1895 23.3974 19.7551 24.7629 20.7618 25.7697C21.7686 26.7765 23.1341 27.3421 24.5579 27.3421V32.7105C24.0027 32.7106 23.4611 32.5386 23.0077 32.2182C22.5543 31.8978 22.2113 31.4448 22.026 30.9215C21.9028 30.592 21.6553 30.3241 21.3366 30.1754C21.0179 30.0266 20.6535 30.0089 20.3219 30.126C19.9903 30.2432 19.7179 30.4858 19.5633 30.8017C19.4088 31.1176 19.3844 31.4816 19.4955 31.8153C19.8657 32.8621 20.5514 33.7683 21.458 34.4093C22.3646 35.0503 23.4476 35.3946 24.5579 35.3947V36.7368C24.5579 37.0928 24.6993 37.4341 24.951 37.6858C25.2027 37.9375 25.544 38.0789 25.9 38.0789C26.2559 38.0789 26.5973 37.9375 26.849 37.6858C27.1007 37.4341 27.2421 37.0928 27.2421 36.7368V35.3947C28.6659 35.3947 30.0314 34.8291 31.0381 33.8223C32.0449 32.8156 32.6105 31.4501 32.6105 30.0263C32.6105 28.6025 32.0449 27.237 31.0381 26.2302C30.0314 25.2235 28.6659 24.6579 27.2421 24.6579V19.2894C27.7973 19.2894 28.3388 19.4613 28.7922 19.7817C29.2457 20.1021 29.5886 20.5551 29.774 21.0785C29.8971 21.4079 30.1447 21.6758 30.4634 21.8246C30.7821 21.9733 31.1464 21.9911 31.4781 21.8739C31.8097 21.7568 32.0821 21.5142 32.2366 21.1982C32.3912 20.8823 32.4156 20.5183 32.3045 20.1846C31.9342 19.1379 31.2486 18.2316 30.342 17.5906C29.4354 16.9496 28.3524 16.6053 27.2421 16.6052V15.2631ZM24.5579 19.2894C23.846 19.2894 23.1632 19.5722 22.6599 20.0756C22.1565 20.579 21.8737 21.2618 21.8737 21.9737C21.8737 22.6855 22.1565 23.3683 22.6599 23.8717C23.1632 24.3751 23.846 24.6579 24.5579 24.6579V19.2894ZM27.2421 27.3421V32.7105C27.954 32.7105 28.6367 32.4277 29.1401 31.9243C29.6435 31.4209 29.9263 30.7382 29.9263 30.0263C29.9263 29.3144 29.6435 28.6316 29.1401 28.1283C28.6367 27.6249 27.954 27.3421 27.2421 27.3421Z" fill="#FD853A"/>
</svg>
