<svg width="14" height="12" viewBox="0 0 14 12" fill="none" xmlns="http://www.w3.org/2000/svg">
<path d="M4.36384 8.72719L6.54566 10.909M6.54566 10.909L8.72748 8.72719M6.54566 10.909V5.99992M11.3893 9.32174C11.8635 8.98827 12.2191 8.51237 12.4045 7.96309C12.59 7.41382 12.5955 6.81975 12.4204 6.2671C12.2453 5.71445 11.8987 5.23197 11.4308 4.88968C10.9629 4.54739 10.3981 4.3631 9.81839 4.36356H9.13112C8.96706 3.72421 8.66011 3.13042 8.23336 2.62687C7.80662 2.12333 7.2712 1.72315 6.66741 1.45648C6.06363 1.1898 5.40721 1.06357 4.74759 1.08729C4.08796 1.11101 3.44231 1.28407 2.85924 1.59342C2.27617 1.90278 1.77088 2.34038 1.3814 2.87328C0.991926 3.40618 0.728418 4.02049 0.610714 4.66996C0.493009 5.31944 0.524177 5.98715 0.701869 6.62284C0.879562 7.25853 1.19915 7.84562 1.63657 8.33992" stroke="#475467" stroke-width="1.5" stroke-linecap="round" stroke-linejoin="round"/>
</svg>
