<svg width="24" height="25" viewBox="0 0 24 25" fill="none" xmlns="http://www.w3.org/2000/svg">
<mask id="path-1-inside-1_10518_250" fill="white">
<path d="M8.14287 5.14285C7.63634 5.14285 7.13477 5.24262 6.6668 5.43646C6.19883 5.6303 5.77362 5.91441 5.41545 6.27258C5.05729 6.63075 4.77317 7.05596 4.57933 7.52393C4.38549 7.9919 4.28572 8.49347 4.28572 9C4.28572 9.50652 4.38549 10.0081 4.57933 10.4761C4.77317 10.944 5.05729 11.3692 5.41545 11.7274C5.77362 12.0856 6.19883 12.3697 6.6668 12.5635C7.13477 12.7574 7.63634 12.8571 8.14287 12.8571C9.16584 12.8571 10.1469 12.4508 10.8703 11.7274C11.5936 11.0041 12 10.023 12 9C12 7.97702 11.5936 6.99594 10.8703 6.27258C10.1469 5.54923 9.16584 5.14285 8.14287 5.14285ZM5.57144 9C5.57144 8.66231 5.63795 8.32793 5.76718 8.01595C5.8964 7.70397 6.08581 7.4205 6.32459 7.18172C6.56337 6.94294 6.84684 6.75353 7.15882 6.62431C7.4708 6.49508 7.80518 6.42857 8.14287 6.42857C8.48055 6.42857 8.81493 6.49508 9.12691 6.62431C9.43889 6.75353 9.72236 6.94294 9.96114 7.18172C10.1999 7.4205 10.3893 7.70397 10.5186 8.01595C10.6478 8.32793 10.7143 8.66231 10.7143 9C10.7143 9.68198 10.4434 10.336 9.96114 10.8183C9.4789 11.3005 8.82485 11.5714 8.14287 11.5714C7.46088 11.5714 6.80683 11.3005 6.32459 10.8183C5.84235 10.336 5.57144 9.68198 5.57144 9ZM17.1429 6.85714C16.3472 6.85714 15.5842 7.17321 15.0215 7.73582C14.4589 8.29843 14.1429 9.06149 14.1429 9.85714C14.1429 10.6528 14.4589 11.4158 15.0215 11.9785C15.5842 12.5411 16.3472 12.8571 17.1429 12.8571C17.9385 12.8571 18.7016 12.5411 19.2642 11.9785C19.8268 11.4158 20.1429 10.6528 20.1429 9.85714C20.1429 9.06149 19.8268 8.29843 19.2642 7.73582C18.7016 7.17321 17.9385 6.85714 17.1429 6.85714ZM15.4286 9.85714C15.4286 9.40248 15.6092 8.96645 15.9307 8.64496C16.2522 8.32346 16.6882 8.14285 17.1429 8.14285C17.5975 8.14285 18.0336 8.32346 18.355 8.64496C18.6765 8.96645 18.8572 9.40248 18.8572 9.85714C18.8572 10.3118 18.6765 10.7478 18.355 11.0693C18.0336 11.3908 17.5975 11.5714 17.1429 11.5714C16.6882 11.5714 16.2522 11.3908 15.9307 11.0693C15.6092 10.7478 15.4286 10.3118 15.4286 9.85714ZM1.71429 16.5C1.71429 15.9885 1.91748 15.498 2.27916 15.1363C2.64084 14.7746 3.13138 14.5714 3.64287 14.5714H12.6429C13.1544 14.5714 13.6449 14.7746 14.0066 15.1363C14.3682 15.498 14.5714 15.9885 14.5714 16.5V16.9551C14.5708 17.0245 14.5659 17.0938 14.5569 17.1626C14.5376 17.3394 14.5061 17.5147 14.4626 17.6871C14.3206 18.2499 14.068 18.7788 13.7194 19.2429C12.8503 20.4026 11.1926 21.4286 8.14287 21.4286C5.09315 21.4286 3.43544 20.4026 2.56629 19.2429C2.21806 18.7787 1.96573 18.2498 1.82401 17.6871C1.76791 17.4631 1.73206 17.2345 1.71687 17.004L1.71429 16.9551V16.5ZM3.00001 16.9243V16.9397L3.00772 17.0254C3.01629 17.106 3.03344 17.2269 3.07115 17.3751C3.17109 17.7716 3.34881 18.1442 3.59401 18.4714C4.17172 19.2403 5.40687 20.1429 8.14287 20.1429C10.8789 20.1429 12.114 19.2403 12.6909 18.4714C12.9909 18.072 13.14 17.6726 13.2137 17.3751C13.2499 17.2323 13.2737 17.0866 13.2849 16.9397L13.2857 16.9243V16.5C13.2857 16.3295 13.218 16.166 13.0974 16.0454C12.9769 15.9249 12.8134 15.8571 12.6429 15.8571H3.64287C3.47237 15.8571 3.30886 15.9249 3.1883 16.0454C3.06774 16.166 3.00001 16.3295 3.00001 16.5V16.9243ZM14.6572 19.3886C15.3197 19.5917 16.1374 19.7143 17.1412 19.7143C19.5154 19.7143 20.8423 19.032 21.5632 18.2091C21.8509 17.8832 22.0644 17.4986 22.1889 17.082C22.2375 16.9136 22.2688 16.7407 22.2823 16.566L22.284 16.5257V16.5C22.284 15.9885 22.0808 15.498 21.7191 15.1363C21.3575 14.7746 20.8669 14.5714 20.3554 14.5714H14.652C14.9897 14.9237 15.2366 15.3651 15.3532 15.8571H20.3563C20.5253 15.8571 20.6875 15.9237 20.8079 16.0424C20.9282 16.1611 20.9969 16.3224 20.9992 16.4914L20.9949 16.5309C20.9863 16.5955 20.9728 16.6594 20.9546 16.722C20.8823 16.9589 20.7594 17.1774 20.5946 17.3623C20.1909 17.8251 19.2686 18.4286 17.1412 18.4286C16.3346 18.4286 15.7012 18.342 15.2032 18.2083C15.0718 18.6232 14.8884 19.0198 14.6572 19.3886Z"/>
</mask>
<path d="M8.14287 5.14285L8.14287 6.94285L8.14287 5.14285ZM4.28572 9H2.48572H4.28572ZM8.14287 12.8571V14.6571V12.8571ZM5.57144 9H7.37144H5.57144ZM8.14287 6.42857V4.62857V6.42857ZM10.7143 9H8.91429H10.7143ZM17.1429 6.85714V5.05714V6.85714ZM14.1429 9.85714H15.9429H14.1429ZM17.1429 8.14285V9.94285V8.14285ZM14.5714 16.9551L16.3714 16.9721L16.3714 16.9636V16.9551H14.5714ZM14.5569 17.1626L12.7722 16.9278L12.7696 16.9475L12.7675 16.9673L14.5569 17.1626ZM14.4626 17.6871L16.2079 18.1275L16.208 18.1272L14.4626 17.6871ZM13.7194 19.2429L12.2801 18.1619L12.2791 18.1634L13.7194 19.2429ZM2.56629 19.2429L4.00668 18.1634L4.00614 18.1626L2.56629 19.2429ZM1.82401 17.6871L0.0779037 18.1243L0.0785197 18.1268L1.82401 17.6871ZM1.71687 17.004L-0.080646 17.0986L-0.0800203 17.1105L-0.0792373 17.1224L1.71687 17.004ZM1.71429 16.9551H-0.0857055V17.0025L-0.0832175 17.0497L1.71429 16.9551ZM3.00001 16.9397H1.20001V17.0205L1.20725 17.1011L3.00001 16.9397ZM3.00772 17.0254L1.21497 17.1868L1.21628 17.2013L1.21782 17.2158L3.00772 17.0254ZM3.07115 17.3751L4.81656 16.9352L4.81561 16.9315L3.07115 17.3751ZM3.59401 18.4714L2.1536 19.5509L2.15497 19.5527L3.59401 18.4714ZM12.6909 18.4714L11.2516 17.3904L11.2511 17.3912L12.6909 18.4714ZM13.2137 17.3751L11.4687 16.9336L11.4666 16.9421L13.2137 17.3751ZM13.2849 16.9397L15.0797 17.0765L15.0811 17.0581L15.0821 17.0396L13.2849 16.9397ZM13.2857 16.9243L15.0829 17.0242L15.0857 16.9743V16.9243H13.2857ZM13.2857 16.5H15.0857H13.2857ZM3.64287 15.8571V17.6571V15.8571ZM14.6572 19.3886L13.1321 18.4323L11.885 20.4213L14.1295 21.1095L14.6572 19.3886ZM21.5632 18.2091L20.2138 17.0177L20.2092 17.023L21.5632 18.2091ZM22.1889 17.082L23.9136 17.5971L23.9159 17.5894L23.9181 17.5816L22.1889 17.082ZM22.2823 16.566L24.077 16.7044L24.0794 16.6735L24.0807 16.6425L22.2823 16.566ZM22.284 16.5257L24.0824 16.6022L24.084 16.564V16.5257H22.284ZM22.284 16.5H24.084H22.284ZM14.652 14.5714V12.7714H10.433L13.3526 15.8171L14.652 14.5714ZM15.3532 15.8571L13.6016 16.2721L13.9298 17.6571H15.3532V15.8571ZM20.3563 15.8571V17.6571H20.3565L20.3563 15.8571ZM20.9992 16.4914L22.7886 16.686L22.8005 16.577L22.799 16.4674L20.9992 16.4914ZM20.9949 16.5309L22.7793 16.7672L22.782 16.7463L22.7843 16.7254L20.9949 16.5309ZM20.9546 16.722L22.6762 17.2475L22.6794 17.2368L22.6826 17.2259L20.9546 16.722ZM20.5946 17.3623L19.251 16.1644L19.2445 16.1717L19.2381 16.1791L20.5946 17.3623ZM15.2032 18.2083L15.6699 16.4699L14.0067 16.0233L13.487 17.6652L15.2032 18.2083ZM8.14287 3.34285C7.39996 3.34285 6.66433 3.48918 5.97797 3.77348L7.35563 7.09944C7.60522 6.99606 7.87272 6.94285 8.14287 6.94285L8.14287 3.34285ZM5.97797 3.77348C5.29162 4.05778 4.66798 4.47448 4.14266 4.99979L6.68825 7.54538C6.87927 7.35435 7.10605 7.20282 7.35563 7.09944L5.97797 3.77348ZM4.14266 4.99979C3.61735 5.52511 3.20065 6.14874 2.91635 6.8351L6.24231 8.21276C6.3457 7.96318 6.49722 7.7364 6.68825 7.54538L4.14266 4.99979ZM2.91635 6.8351C2.63205 7.52146 2.48572 8.25709 2.48572 9H6.08572C6.08572 8.72985 6.13893 8.46235 6.24231 8.21276L2.91635 6.8351ZM2.48572 9C2.48572 9.7429 2.63205 10.4785 2.91635 11.1649L6.24231 9.78723C6.13893 9.53765 6.08572 9.27014 6.08572 9H2.48572ZM2.91635 11.1649C3.20065 11.8512 3.61735 12.4749 4.14266 13.0002L6.68825 10.4546C6.49722 10.2636 6.34569 10.0368 6.24231 9.78723L2.91635 11.1649ZM4.14266 13.0002C4.66798 13.5255 5.29161 13.9422 5.97797 14.2265L7.35563 10.9005C7.10605 10.7972 6.87927 10.6456 6.68825 10.4546L4.14266 13.0002ZM5.97797 14.2265C6.66433 14.5108 7.39996 14.6571 8.14287 14.6571L8.14287 11.0571C7.87272 11.0571 7.60521 11.0039 7.35563 10.9005L5.97797 14.2265ZM8.14287 14.6571C9.64323 14.6571 11.0821 14.0611 12.1431 13.0002L9.59749 10.4546C9.2117 10.8404 8.68845 11.0571 8.14287 11.0571L8.14287 14.6571ZM12.1431 13.0002C13.204 11.9393 13.8 10.5004 13.8 9H10.2C10.2 9.54558 9.98327 10.0688 9.59749 10.4546L12.1431 13.0002ZM13.8 9C13.8 7.49963 13.204 6.06071 12.1431 4.99979L9.59749 7.54538C9.98327 7.93117 10.2 8.45441 10.2 9H13.8ZM12.1431 4.99979C11.0821 3.93887 9.64323 3.34285 8.14287 3.34285L8.14287 6.94285C8.68845 6.94285 9.2117 7.15959 9.59749 7.54538L12.1431 4.99979ZM7.37144 9C7.37144 8.89869 7.39139 8.79838 7.43016 8.70478L4.10419 7.32712C3.88451 7.85749 3.77144 8.42593 3.77144 9H7.37144ZM7.43016 8.70478C7.46893 8.61119 7.52575 8.52615 7.59738 8.45451L5.0518 5.90893C4.64587 6.31485 4.32388 6.79676 4.10419 7.32712L7.43016 8.70478ZM7.59738 8.45451C7.66902 8.38288 7.75406 8.32606 7.84765 8.28729L6.46999 4.96132C5.93963 5.18101 5.45772 5.503 5.0518 5.90893L7.59738 8.45451ZM7.84765 8.28729C7.94125 8.24852 8.04156 8.22857 8.14287 8.22857V4.62857C7.5688 4.62857 7.00036 4.74164 6.46999 4.96132L7.84765 8.28729ZM8.14287 8.22857C8.24417 8.22857 8.34449 8.24852 8.43808 8.28729L9.81574 4.96132C9.28537 4.74164 8.71693 4.62857 8.14287 4.62857V8.22857ZM8.43808 8.28729C8.53167 8.32606 8.61671 8.38288 8.68835 8.45451L11.2339 5.90893C10.828 5.503 10.3461 5.18101 9.81574 4.96132L8.43808 8.28729ZM8.68835 8.45451C8.75998 8.52615 8.81681 8.61119 8.85557 8.70478L12.1815 7.32712C11.9619 6.79676 11.6399 6.31485 11.2339 5.90893L8.68835 8.45451ZM8.85557 8.70478C8.89434 8.79838 8.91429 8.89869 8.91429 9H12.5143C12.5143 8.42593 12.4012 7.85749 12.1815 7.32712L8.85557 8.70478ZM8.91429 9C8.91429 9.20459 8.83302 9.40081 8.68835 9.54548L11.2339 12.0911C12.0537 11.2713 12.5143 10.1594 12.5143 9H8.91429ZM8.68835 9.54548C8.54368 9.69015 8.34746 9.77142 8.14287 9.77142V13.3714C9.30224 13.3714 10.4141 12.9109 11.2339 12.0911L8.68835 9.54548ZM8.14287 9.77142C7.93827 9.77142 7.74205 9.69015 7.59738 9.54548L5.0518 12.0911C5.8716 12.9109 6.98349 13.3714 8.14287 13.3714V9.77142ZM7.59738 9.54548C7.45271 9.40081 7.37144 9.20459 7.37144 9H3.77144C3.77144 10.1594 4.232 11.2713 5.0518 12.0911L7.59738 9.54548ZM17.1429 5.05714C15.8698 5.05714 14.6489 5.56285 13.7488 6.46303L16.2943 9.00861C16.5194 8.78357 16.8246 8.65714 17.1429 8.65714V5.05714ZM13.7488 6.46303C12.8486 7.3632 12.3429 8.5841 12.3429 9.85714H15.9429C15.9429 9.53888 16.0693 9.23365 16.2943 9.00861L13.7488 6.46303ZM12.3429 9.85714C12.3429 11.1302 12.8486 12.3511 13.7488 13.2513L16.2943 10.7057C16.0693 10.4806 15.9429 10.1754 15.9429 9.85714H12.3429ZM13.7488 13.2513C14.6489 14.1514 15.8698 14.6571 17.1429 14.6571V11.0571C16.8246 11.0571 16.5194 10.9307 16.2943 10.7057L13.7488 13.2513ZM17.1429 14.6571C18.4159 14.6571 19.6368 14.1514 20.537 13.2513L17.9914 10.7057C17.7664 10.9307 17.4611 11.0571 17.1429 11.0571V14.6571ZM20.537 13.2513C21.4372 12.3511 21.9429 11.1302 21.9429 9.85714H18.3429C18.3429 10.1754 18.2164 10.4806 17.9914 10.7057L20.537 13.2513ZM21.9429 9.85714C21.9429 8.5841 21.4372 7.3632 20.537 6.46303L17.9914 9.00861C18.2164 9.23365 18.3429 9.53888 18.3429 9.85714H21.9429ZM20.537 6.46303C19.6368 5.56285 18.4159 5.05714 17.1429 5.05714V8.65714C17.4611 8.65714 17.7664 8.78357 17.9914 9.00861L20.537 6.46303ZM17.2286 9.85714C17.2286 9.87987 17.2195 9.90167 17.2035 9.91775L14.6579 7.37216C13.9988 8.03122 13.6286 8.92509 13.6286 9.85714H17.2286ZM17.2035 9.91775C17.1874 9.93382 17.1656 9.94285 17.1429 9.94285V6.34285C16.2108 6.34285 15.3169 6.71311 14.6579 7.37216L17.2035 9.91775ZM17.1429 9.94285C17.1201 9.94285 17.0983 9.93382 17.0823 9.91775L19.6278 7.37216C18.9688 6.71311 18.0749 6.34285 17.1429 6.34285V9.94285ZM17.0823 9.91775C17.0662 9.90167 17.0572 9.87987 17.0572 9.85714H20.6572C20.6572 8.92509 20.2869 8.03122 19.6278 7.37216L17.0823 9.91775ZM17.0572 9.85714C17.0572 9.8344 17.0662 9.8126 17.0823 9.79653L19.6278 12.3421C20.2869 11.6831 20.6572 10.7892 20.6572 9.85714H17.0572ZM17.0823 9.79653C17.0983 9.78046 17.1201 9.77142 17.1429 9.77142V13.3714C18.0749 13.3714 18.9688 13.0012 19.6278 12.3421L17.0823 9.79653ZM17.1429 9.77142C17.1656 9.77142 17.1874 9.78046 17.2035 9.79653L14.6579 12.3421C15.3169 13.0012 16.2108 13.3714 17.1429 13.3714V9.77142ZM17.2035 9.79653C17.2195 9.8126 17.2286 9.8344 17.2286 9.85714H13.6286C13.6286 10.7892 13.9988 11.6831 14.6579 12.3421L17.2035 9.79653ZM3.51429 16.5C3.51429 16.4659 3.52784 16.4332 3.55195 16.4091L1.00637 13.8635C0.307125 14.5627 -0.0857055 15.5111 -0.0857055 16.5H3.51429ZM3.55195 16.4091C3.57606 16.385 3.60877 16.3714 3.64287 16.3714V12.7714C2.65399 12.7714 1.70561 13.1643 1.00637 13.8635L3.55195 16.4091ZM3.64287 16.3714H12.6429V12.7714H3.64287V16.3714ZM12.6429 16.3714C12.677 16.3714 12.7097 16.385 12.7338 16.4091L15.2794 13.8635C14.5801 13.1643 13.6317 12.7714 12.6429 12.7714V16.3714ZM12.7338 16.4091C12.7579 16.4332 12.7714 16.4659 12.7714 16.5H16.3714C16.3714 15.5111 15.9786 14.5627 15.2794 13.8635L12.7338 16.4091ZM12.7714 16.5V16.9551H16.3714V16.5H12.7714ZM12.7715 16.9381C12.7716 16.9347 12.7718 16.9312 12.7722 16.9278L16.3415 17.3974C16.36 17.2564 16.37 17.1144 16.3714 16.9721L12.7715 16.9381ZM12.7675 16.9673C12.7572 17.0616 12.7404 17.1551 12.7172 17.2471L16.208 18.1272C16.2717 17.8742 16.3179 17.6172 16.3462 17.3578L12.7675 16.9673ZM12.7173 17.2468C12.6337 17.5778 12.4851 17.8889 12.2801 18.1619L15.1587 20.3238C15.6508 19.6686 16.0074 18.922 16.2079 18.1275L12.7173 17.2468ZM12.2791 18.1634C11.8204 18.7753 10.7549 19.6286 8.14287 19.6286V23.2286C11.6303 23.2286 13.8802 22.0298 15.1598 20.3223L12.2791 18.1634ZM8.14287 19.6286C5.53084 19.6286 4.4653 18.7753 4.00668 18.1634L1.12591 20.3223C2.40558 22.0298 4.65546 23.2286 8.14287 23.2286V19.6286ZM4.00614 18.1626C3.8013 17.8896 3.65286 17.5785 3.5695 17.2475L0.0785197 18.1268C0.278598 18.9212 0.634833 19.6678 1.12645 20.3231L4.00614 18.1626ZM3.57011 17.25C3.54019 17.1305 3.52107 17.0085 3.51297 16.8856L-0.0792373 17.1224C-0.0569599 17.4604 -0.00436771 17.7957 0.0779055 18.1243L3.57011 17.25ZM3.51438 16.9094L3.51181 16.8605L-0.0832175 17.0497L-0.080646 17.0986L3.51438 16.9094ZM3.51429 16.9551V16.5H-0.0857055V16.9551H3.51429ZM1.20001 16.9243V16.9397H4.80001V16.9243H1.20001ZM1.20725 17.1011L1.21497 17.1868L4.80048 16.8641L4.79276 16.7784L1.20725 17.1011ZM1.21782 17.2158C1.23335 17.3617 1.26336 17.5698 1.32669 17.8188L4.81561 16.9315C4.80352 16.8839 4.79924 16.8502 4.79762 16.835L1.21782 17.2158ZM1.32575 17.8151C1.48398 18.4428 1.76538 19.0328 2.15361 19.5509L5.03441 17.392C4.93225 17.2556 4.85819 17.1004 4.81656 16.9352L1.32575 17.8151ZM2.15497 19.5527C3.14118 20.8652 4.96551 21.9429 8.14287 21.9429V18.3429C5.84822 18.3429 5.20227 17.6154 5.03305 17.3901L2.15497 19.5527ZM8.14287 21.9429C11.3198 21.9429 13.145 20.8654 14.1307 19.5517L11.2511 17.3912C11.083 17.6151 10.438 18.3429 8.14287 18.3429V21.9429ZM14.1301 19.5524C14.6049 18.9203 14.8423 18.2867 14.9609 17.8081L11.4666 16.9421C11.4378 17.0584 11.3768 17.2237 11.2516 17.3904L14.1301 19.5524ZM14.9587 17.8167C15.0202 17.5739 15.0606 17.3262 15.0797 17.0765L11.4901 16.8029C11.4867 16.847 11.4796 16.8907 11.4687 16.9336L14.9587 17.8167ZM15.0821 17.0396L15.0829 17.0242L11.4885 16.8244L11.4876 16.8398L15.0821 17.0396ZM15.0857 16.9243V16.5H11.4857V16.9243H15.0857ZM15.0857 16.5C15.0857 15.8521 14.8284 15.2308 14.3702 14.7726L11.8246 17.3182C11.6076 17.1012 11.4857 16.8069 11.4857 16.5H15.0857ZM14.3702 14.7726C13.9121 14.3145 13.2907 14.0571 12.6429 14.0571V17.6571C12.336 17.6571 12.0417 17.5352 11.8246 17.3182L14.3702 14.7726ZM12.6429 14.0571H3.64287V17.6571H12.6429V14.0571ZM3.64287 14.0571C2.99498 14.0571 2.37363 14.3145 1.91551 14.7726L4.46109 17.3182C4.24408 17.5352 3.94976 17.6571 3.64287 17.6571V14.0571ZM1.91551 14.7726C1.45738 15.2308 1.20001 15.8521 1.20001 16.5H4.80001C4.80001 16.8069 4.6781 17.1012 4.46109 17.3182L1.91551 14.7726ZM1.20001 16.5V16.9243H4.80001V16.5H1.20001ZM14.1295 21.1095C14.9936 21.3744 15.9936 21.5143 17.1412 21.5143V17.9143C16.2812 17.9143 15.6458 17.809 15.1848 17.6676L14.1295 21.1095ZM17.1412 21.5143C19.8594 21.5143 21.7541 20.7228 22.9171 19.3952L20.2092 17.023C19.9305 17.3411 19.1715 17.9143 17.1412 17.9143V21.5143ZM22.9124 19.4005C23.3729 18.879 23.7145 18.2637 23.9136 17.5971L20.4641 16.5669C20.4144 16.7335 20.329 16.8874 20.2139 17.0177L22.9124 19.4005ZM23.9181 17.5816C24.0008 17.2954 24.0541 17.0015 24.077 16.7044L20.4876 16.4276C20.4836 16.48 20.4742 16.5319 20.4596 16.5824L23.9181 17.5816ZM24.0807 16.6425L24.0824 16.6022L20.4856 16.4492L20.4839 16.4895L24.0807 16.6425ZM24.084 16.5257V16.5H20.484V16.5257H24.084ZM24.084 16.5C24.084 15.5111 23.6912 14.5627 22.9919 13.8635L20.4464 16.4091C20.4705 16.4332 20.484 16.4659 20.484 16.5H24.084ZM22.9919 13.8635C22.2927 13.1643 21.3443 12.7714 20.3554 12.7714V16.3714C20.3895 16.3714 20.4222 16.385 20.4464 16.4091L22.9919 13.8635ZM20.3554 12.7714H14.652V16.3714H20.3554V12.7714ZM13.3526 15.8171C13.4744 15.9441 13.5611 16.1008 13.6016 16.2721L17.1047 15.4421C16.9121 14.6294 16.5051 13.9033 15.9514 13.3258L13.3526 15.8171ZM15.3532 17.6571H20.3563V14.0571H15.3532V17.6571ZM20.3565 17.6571C20.0522 17.6572 19.7602 17.5374 19.5436 17.3237L22.0721 14.7611C21.6149 14.31 20.9984 14.0571 20.3561 14.0571L20.3565 17.6571ZM19.5436 17.3237C19.3271 17.11 19.2034 16.8196 19.1993 16.5154L22.799 16.4674C22.7904 15.8252 22.5293 15.2122 22.0721 14.7611L19.5436 17.3237ZM19.2097 16.2969L19.2054 16.3363L22.7843 16.7254L22.7886 16.686L19.2097 16.2969ZM19.2104 16.2945C19.2139 16.2687 19.2193 16.2431 19.2266 16.2181L22.6826 17.2259C22.7264 17.0757 22.7587 16.9223 22.7793 16.7672L19.2104 16.2945ZM19.233 16.1965C19.2366 16.1846 19.2428 16.1737 19.251 16.1644L21.9382 18.5601C22.2761 18.1811 22.5279 17.7332 22.6762 17.2475L19.233 16.1965ZM19.2381 16.1791C19.2344 16.1833 19.2132 16.207 19.1622 16.2422C19.1106 16.2778 19.0196 16.3311 18.8725 16.3873C18.5754 16.5006 18.0394 16.6286 17.1412 16.6286V20.2286C19.6134 20.2286 21.1051 19.5153 21.9511 18.5455L19.2381 16.1791ZM17.1412 16.6286C16.4608 16.6286 15.9881 16.5553 15.6699 16.4699L14.7364 19.9467C15.4142 20.1287 16.2084 20.2286 17.1412 20.2286V16.6286ZM13.487 17.6652C13.4017 17.9349 13.2824 18.1927 13.1321 18.4323L16.1822 20.3448C16.4943 19.847 16.742 19.3116 16.9193 18.7514L13.487 17.6652Z" fill="currentColor" mask="url(#path-1-inside-1_10518_250)"/>
</svg>
