<svg width="24" height="25" viewBox="0 0 24 25" fill="none" xmlns="http://www.w3.org/2000/svg">
<path d="M19 8.35715C20.3807 8.35715 21.5 7.23786 21.5 5.85715C21.5 4.47644 20.3807 3.35715 19 3.35715C17.6193 3.35715 16.5 4.47644 16.5 5.85715C16.5 7.23786 17.6193 8.35715 19 8.35715Z" stroke="currentColor" stroke-width="1.5"/>
<path d="M21.25 10.8571V16.1071C21.25 17.6984 20.6179 19.2246 19.4926 20.3498C18.3674 21.475 16.8413 22.1071 15.25 22.1071H8.75C7.1587 22.1071 5.63258 21.475 4.50736 20.3498C3.38214 19.2246 2.75 17.6984 2.75 16.1071V9.60715C2.75 8.01585 3.38214 6.48972 4.50736 5.36451C5.63258 4.23929 7.1587 3.60715 8.75 3.60715H14" stroke="currentColor" stroke-width="1.5" stroke-linecap="round"/>
<path d="M8.276 16.8931V12.5051M12.106 16.8931V9.62614M15.724 16.8931V11.3831" stroke="currentColor" stroke-width="1.6" stroke-linecap="round"/>
</svg>
