<svg width="24" height="25" viewBox="0 0 24 25" fill="none" xmlns="http://www.w3.org/2000/svg">
<path d="M19.898 16.8572H7.898C6.968 16.8572 6.503 16.8572 6.121 16.9592C5.61231 17.0956 5.14849 17.3635 4.77618 17.736C4.40386 18.1085 4.13616 18.5724 4 19.0812" stroke="currentColor" stroke-width="1.5"/>
<path d="M8 7.85718H16M8 11.3572H13M10 22.8572C7.172 22.8572 5.757 22.8572 4.879 21.9782C4 21.1002 4 19.6852 4 16.8572V8.85718C4 6.02918 4 4.61418 4.879 3.73618C5.757 2.85718 7.172 2.85718 10 2.85718H14C16.828 2.85718 18.243 2.85718 19.121 3.73618C20 4.61418 20 6.02918 20 8.85718M14 22.8572C16.828 22.8572 18.243 22.8572 19.121 21.9782C20 21.1002 20 19.6852 20 16.8572V12.8572" stroke="currentColor" stroke-width="1.5" stroke-linecap="round"/>
</svg>
