<svg width="37" height="31" viewBox="0 0 37 31" fill="none" xmlns="http://www.w3.org/2000/svg">
<path d="M0.583374 15.5C0.583374 9.1629 0.583374 5.99344 2.47 3.87748C2.77219 3.53826 3.10305 3.22651 3.46258 2.94223C5.71112 1.16669 9.07767 1.16669 15.8125 1.16669H21.1875C27.9224 1.16669 31.289 1.16669 33.5357 2.94044C33.8964 3.2271 34.2279 3.53945 34.5301 3.87748C36.4167 5.99165 36.4167 9.1629 36.4167 15.5C36.4167 21.8371 36.4167 25.0066 34.5301 27.1226C34.2263 27.4625 33.8936 27.7754 33.5357 28.0578C31.289 29.8334 27.9242 29.8334 21.1875 29.8334H15.8125C9.07767 29.8334 5.71112 29.8334 3.46258 28.0596C3.10525 27.7765 2.77315 27.463 2.47 27.1226C0.583374 25.0084 0.583374 21.8371 0.583374 15.5Z" stroke="currentColor" stroke-linecap="round" stroke-linejoin="round"/>
<path d="M5.95837 15.5H7.75004M29.25 15.5H31.0417M23.0706 15.5C23.0706 16.6879 22.5987 17.8272 21.7587 18.6672C20.9187 19.5072 19.7794 19.9791 18.5914 19.9791C17.4035 19.9791 16.2642 19.5072 15.4242 18.6672C14.5842 17.8272 14.1122 16.6879 14.1122 15.5C14.1122 14.312 14.5842 13.1727 15.4242 12.3327C16.2642 11.4927 17.4035 11.0208 18.5914 11.0208C19.7794 11.0208 20.9187 11.4927 21.7587 12.3327C22.5987 13.1727 23.0706 14.312 23.0706 15.5Z" stroke="currentColor" stroke-width="2.6875" stroke-linecap="round" stroke-linejoin="round"/>
</svg>
