<svg width="52" height="52" viewBox="0 0 52 52" fill="none" xmlns="http://www.w3.org/2000/svg">
<rect x="0.199219" y="0.5" width="51" height="51" rx="25.5" fill="#FFD7BF"/>
<g clip-path="url(#clip0_10423_32629)">
<path d="M20.8394 17.205C20.4655 16.7143 19.7657 16.492 19.1186 16.6639C18.4715 16.8359 18.0306 17.356 18.0306 17.9473V26H16.4967C15.6483 26 14.9629 26.5997 14.9629 27.3421C14.9629 28.0844 15.6483 28.6842 16.4967 28.6842H18.0306V34.0526C18.0306 34.7949 18.716 35.3947 19.5644 35.3947C20.4128 35.3947 21.0982 34.7949 21.0982 34.0526V28.6842H25.901L30.5601 34.7991C30.9339 35.2898 31.6338 35.5121 32.2808 35.3402C32.9279 35.1682 33.3689 34.6482 33.3689 34.0568V28.6842H34.9027C35.7511 28.6842 36.4366 28.0844 36.4366 27.3421C36.4366 26.5997 35.7511 26 34.9027 26H33.3689V17.9473C33.3689 17.205 32.6835 16.6052 31.8351 16.6052C30.9867 16.6052 30.3012 17.205 30.3012 17.9473V26H27.5451L20.8394 17.205ZM29.587 28.6842H30.3012V29.6195L29.587 28.6842ZM23.8543 26H21.0982V22.3805L23.8543 26Z" fill="#FD853A"/>
</g>
<defs>
<clipPath id="clip0_10423_32629">
<rect width="21.4737" height="21.4737" fill="white" transform="translate(14.9629 15.2632)"/>
</clipPath>
</defs>
</svg>
