<svg width="52" height="52" viewBox="0 0 52 52" fill="none" xmlns="http://www.w3.org/2000/svg">
<rect x="0.599609" y="0.5" width="51" height="51" rx="25.5" fill="#FFD7BF"/>
<path d="M27.466 36.7368H24.8428C24.7106 36.7368 24.5962 36.6911 24.4996 36.5996C24.4031 36.5081 24.3548 36.3911 24.3548 36.2488V31.2159H19.9624C19.8302 31.2159 19.7159 31.1702 19.6193 31.0786C19.5227 30.9871 19.4744 30.8702 19.4744 30.7279V29.157C19.4744 29.0248 19.5227 28.9104 19.6193 28.8138C19.7159 28.7172 19.8302 28.669 19.9624 28.669H24.3548V27.3726H19.9624C19.8302 27.3726 19.7159 27.3268 19.6193 27.2353C19.5227 27.1438 19.4744 27.0269 19.4744 26.8846V25.2984C19.4744 25.1663 19.5227 25.0519 19.6193 24.9553C19.7159 24.8587 19.8302 24.8104 19.9624 24.8104H23.2262L18.3305 15.9952C18.2492 15.8325 18.2492 15.6699 18.3305 15.5072C18.4322 15.3445 18.5746 15.2632 18.7576 15.2632H21.7163C21.9095 15.2632 22.0569 15.3547 22.1586 15.5377L25.4376 22.0194C25.6308 22.4058 25.9155 23.0413 26.2917 23.9258C26.3933 23.6818 26.5484 23.3361 26.7568 22.8888C26.9653 22.4414 27.1051 22.1313 27.1762 21.9584L30.0892 15.5529C30.1705 15.3597 30.318 15.2632 30.5315 15.2632H33.4445C33.6173 15.2632 33.7546 15.3445 33.8563 15.5072C33.9478 15.6495 33.9528 15.8071 33.8715 15.98L29.0979 24.8104H32.3769C32.5091 24.8104 32.6235 24.8587 32.72 24.9553C32.8166 25.0519 32.8649 25.1663 32.8649 25.2984V26.8846C32.8649 27.0269 32.8166 27.1438 32.72 27.2353C32.6235 27.3268 32.5091 27.3726 32.3769 27.3726H27.954V28.669H32.3769C32.5091 28.669 32.6235 28.7172 32.72 28.8138C32.8166 28.9104 32.8649 29.0248 32.8649 29.157V30.7279C32.8649 30.8702 32.8166 30.9871 32.72 31.0786C32.6235 31.1702 32.5091 31.2159 32.3769 31.2159H27.954V36.2488C27.954 36.381 27.9057 36.4954 27.8092 36.592C27.7126 36.6885 27.5982 36.7368 27.466 36.7368Z" fill="#FD853A"/>
</svg>
