<svg width="24" height="25" viewBox="0 0 24 25" fill="none" xmlns="http://www.w3.org/2000/svg">
<g clip-path="url(#clip0_11084_4958)">
<path d="M17.25 20.8574H17.75V20.3574V18.6074H22.75V23.6074H17.75V21.8574V21.3574H17.25H6.375C5.21468 21.3574 4.10188 20.8965 3.28141 20.076C2.46094 19.2555 2 18.1427 2 16.9824C2 15.8221 2.46094 14.7093 3.28141 13.8888C4.07237 13.0979 5.13501 12.641 6.25 12.6092V13.1094C5.26765 13.1411 4.33215 13.5452 3.63496 14.2424C2.90826 14.9691 2.5 15.9547 2.5 16.9824C2.5 18.0101 2.90826 18.9958 3.63496 19.7225C4.36166 20.4492 5.34729 20.8574 6.375 20.8574H17.25ZM21.75 23.1074H22.25V22.6074V19.6074V19.1074H21.75H18.75H18.25V19.6074V22.6074V23.1074H18.75H21.75Z" stroke="#667085"/>
<path d="M15.75 17.3574H14.25V15.1074H9.75V17.3574H8.25V15.1074C8.25 14.7096 8.40804 14.3281 8.68934 14.0468C8.97064 13.7655 9.35218 13.6074 9.75 13.6074H14.25C14.6478 13.6074 15.0294 13.7655 15.3107 14.0468C15.592 14.3281 15.75 14.7096 15.75 15.1074V17.3574ZM12 12.8574C11.555 12.8574 11.12 12.7255 10.75 12.4782C10.38 12.231 10.0916 11.8796 9.92127 11.4685C9.75097 11.0573 9.70642 10.6049 9.79323 10.1685C9.88005 9.73201 10.0943 9.3311 10.409 9.01643C10.7237 8.70176 11.1246 8.48747 11.561 8.40066C11.9975 8.31384 12.4499 8.3584 12.861 8.52869C13.2722 8.69899 13.6236 8.98738 13.8708 9.35739C14.118 9.7274 14.25 10.1624 14.25 10.6074C14.2494 11.204 14.0122 11.7759 13.5903 12.1978C13.1685 12.6196 12.5966 12.8568 12 12.8574ZM12 9.85742C11.8517 9.85742 11.7067 9.90141 11.5833 9.98382C11.46 10.0662 11.3639 10.1834 11.3071 10.3204C11.2503 10.4575 11.2355 10.6083 11.2644 10.7537C11.2933 10.8992 11.3648 11.0329 11.4697 11.1378C11.5746 11.2426 11.7082 11.3141 11.8537 11.343C11.9992 11.372 12.15 11.3571 12.287 11.3003C12.4241 11.2436 12.5412 11.1474 12.6236 11.0241C12.706 10.9008 12.75 10.7558 12.75 10.6074C12.75 10.4085 12.671 10.2177 12.5303 10.0771C12.3897 9.93644 12.1989 9.85742 12 9.85742Z" fill="#667085"/>
<path d="M17.625 3.85742H6.75V1.60742H0.75V7.60742H6.75V5.35742H17.625C18.5201 5.35742 19.3785 5.713 20.0115 6.34594C20.6444 6.97887 21 7.83732 21 8.73242C21 9.62753 20.6444 10.486 20.0115 11.1189C19.3785 11.7518 18.5201 12.1074 17.625 12.1074H17.25V13.6074H17.625C18.9179 13.6074 20.1579 13.0938 21.0721 12.1796C21.9864 11.2653 22.5 10.0254 22.5 8.73242C22.5 7.43949 21.9864 6.19952 21.0721 5.28528C20.1579 4.37104 18.9179 3.85742 17.625 3.85742ZM5.25 6.10742H2.25V3.10742H5.25V6.10742Z" fill="#667085"/>
</g>
<defs>
<clipPath id="clip0_11084_4958">
<rect width="24" height="24" fill="white" transform="translate(0 0.857422)"/>
</clipPath>
</defs>
</svg>
