<svg width="24" height="25" viewBox="0 0 24 25" fill="none" xmlns="http://www.w3.org/2000/svg">
<path d="M11.1196 20.0283L11.2712 20.1799C10.4813 20.5274 9.44819 20.7572 8.10078 20.7572C5.22365 20.7572 3.76499 19.714 3.03105 18.6517C2.63522 18.0749 2.38827 17.4091 2.31222 16.7136L2.31203 16.7119C2.30602 16.6586 2.30226 16.6051 2.30078 16.5515V16.4572C2.30078 15.9533 2.50096 15.47 2.85728 15.1137C3.2136 14.7574 3.69687 14.5572 4.20078 14.5572H12.0008H12.0008C12.2974 14.5572 12.5873 14.6265 12.8484 14.7566L12.6987 14.9066C12.4853 14.8105 12.2488 14.7572 12.0008 14.7572H4.20078C3.74991 14.7572 3.31751 14.9363 2.9987 15.2551C2.67989 15.5739 2.50078 16.0063 2.50078 16.4572V16.5304V16.5451L2.50164 16.5597L2.50284 16.5801L2.5028 16.5802L2.50328 16.5868L2.51048 16.6864L2.51121 16.6966L2.51235 16.7066C2.58667 17.3631 2.82084 17.9913 3.19436 18.5363L3.19558 18.538C3.88698 19.5375 5.27774 20.5572 8.10078 20.5572C9.36942 20.5572 10.3538 20.3522 11.1196 20.0283ZM12.5291 18.1864L12.5295 18.1859L14.9295 15.7859C14.9484 15.767 14.9741 15.7564 15.0008 15.7564C15.0275 15.7564 15.0531 15.767 15.072 15.7859C15.0909 15.8048 15.1015 15.8305 15.1015 15.8572C15.1015 15.8839 15.091 15.9095 15.0721 15.9284C15.0721 15.9284 15.0721 15.9284 15.072 15.9284L13.6958 17.3035L12.8413 18.1572H14.0492H20.7524H21.9602L21.1058 17.3035L19.7295 15.9284C19.7295 15.9284 19.7295 15.9284 19.7295 15.9284C19.7106 15.9095 19.7 15.8839 19.7 15.8572C19.7 15.8305 19.7106 15.8048 19.7295 15.7859L19.376 15.4324L19.7295 15.7859C19.7484 15.767 19.7741 15.7564 19.8008 15.7564C19.8275 15.7564 19.8531 15.767 19.872 15.7859L22.272 18.1859L22.2725 18.1864C22.2818 18.1957 22.2892 18.2067 22.2942 18.2189C22.2993 18.231 22.3019 18.244 22.3019 18.2572C22.3019 18.2703 22.2993 18.2834 22.2942 18.2955C22.2892 18.3077 22.2818 18.3187 22.2725 18.328L22.272 18.3284L19.872 20.7284C19.8531 20.7473 19.8275 20.7579 19.8008 20.7579C19.7741 20.7579 19.7484 20.7473 19.7295 20.7284C19.7106 20.7095 19.7 20.6839 19.7 20.6572C19.7 20.6305 19.7106 20.6049 19.7295 20.586C19.7295 20.586 19.7295 20.586 19.7295 20.5859L21.1058 19.2109L21.9602 18.3572H20.7524H14.0492H12.8413L13.6958 19.2109L15.072 20.5859C15.0909 20.6048 15.1015 20.6305 15.1015 20.6572C15.1015 20.6839 15.0909 20.7095 15.072 20.7284C15.0531 20.7473 15.0275 20.7579 15.0008 20.7579C14.9741 20.7579 14.9484 20.7473 14.9295 20.7284L12.5295 18.3284L12.5291 18.328C12.5198 18.3187 12.5124 18.3077 12.5073 18.2955C12.5023 18.2834 12.4997 18.2703 12.4997 18.2572C12.4997 18.244 12.5023 18.231 12.5073 18.2189C12.5124 18.2067 12.5198 18.1957 12.5291 18.1864ZM8.10078 5.75719C7.25209 5.75719 6.43816 6.09433 5.83804 6.69445C5.23792 7.29456 4.90078 8.1085 4.90078 8.95719C4.90078 9.80588 5.23792 10.6198 5.83804 11.2199C6.43816 11.82 7.25209 12.1572 8.10078 12.1572C8.94947 12.1572 9.76341 11.82 10.3635 11.2199C10.9636 10.6198 11.3008 9.80588 11.3008 8.95719C11.3008 8.1085 10.9636 7.29456 10.3635 6.69445C9.76341 6.09433 8.94947 5.75719 8.10078 5.75719ZM4.70078 8.95719C4.70078 8.05545 5.05899 7.19065 5.69662 6.55303C6.33424 5.9154 7.19905 5.55719 8.10078 5.55719C9.00252 5.55719 9.86732 5.9154 10.5049 6.55303C11.1426 7.19065 11.5008 8.05545 11.5008 8.95719C11.5008 9.85893 11.1426 10.7237 10.5049 11.3614C9.86732 11.999 9.00252 12.3572 8.10078 12.3572C7.19905 12.3572 6.33424 11.999 5.69662 11.3614C5.05899 10.7237 4.70078 9.85893 4.70078 8.95719ZM17.4008 7.55719C16.7908 7.55719 16.2058 7.79951 15.7744 8.23084C15.3431 8.66218 15.1008 9.24719 15.1008 9.85719C15.1008 10.4672 15.3431 11.0522 15.7744 11.4835C16.2058 11.9149 16.7908 12.1572 17.4008 12.1572C18.0108 12.1572 18.5958 11.9149 19.0271 11.4835C19.4585 11.0522 19.7008 10.4672 19.7008 9.85719C19.7008 9.24719 19.4585 8.66218 19.0271 8.23084C18.5958 7.79951 18.0108 7.55719 17.4008 7.55719ZM14.9008 9.85719C14.9008 9.19415 15.1642 8.55826 15.633 8.08942C16.1019 7.62058 16.7377 7.35719 17.4008 7.35719C18.0638 7.35719 18.6997 7.62058 19.1685 8.08942C19.6374 8.55826 19.9008 9.19415 19.9008 9.85719C19.9008 10.5202 19.6374 11.1561 19.1685 11.625C18.6997 12.0938 18.0638 12.3572 17.4008 12.3572C16.7377 12.3572 16.1019 12.0938 15.633 11.625C15.1642 11.1561 14.9008 10.5202 14.9008 9.85719Z" stroke="currentColor"/>
</svg>
