<svg width="24" height="25" viewBox="0 0 24 25" fill="none" xmlns="http://www.w3.org/2000/svg">
<g clip-path="url(#clip0_11323_3760)">
<path d="M17.25 20.8572H17.75V20.3572V18.6072H22.75V23.6072H17.75V21.8572V21.3572H17.25H6.375C5.21468 21.3572 4.10188 20.8962 3.28141 20.0758C2.46094 19.2553 2 18.1425 2 16.9822C2 15.8219 2.46094 14.7091 3.28141 13.8886C4.07237 13.0976 5.13501 12.6408 6.25 12.609V13.1092C5.26765 13.1409 4.33215 13.545 3.63496 14.2421C2.90826 14.9688 2.5 15.9545 2.5 16.9822C2.5 18.0099 2.90826 18.9955 3.63496 19.7222C4.36166 20.4489 5.34729 20.8572 6.375 20.8572H17.25ZM21.75 23.1072H22.25V22.6072V19.6072V19.1072H21.75H18.75H18.25V19.6072V22.6072V23.1072H18.75H21.75Z" stroke="currentColor"/>
<path d="M15.75 17.3572H14.25V15.1072H9.75V17.3572H8.25V15.1072C8.25 14.7094 8.40804 14.3278 8.68934 14.0465C8.97064 13.7652 9.35218 13.6072 9.75 13.6072H14.25C14.6478 13.6072 15.0294 13.7652 15.3107 14.0465C15.592 14.3278 15.75 14.7094 15.75 15.1072V17.3572ZM12 12.8572C11.555 12.8572 11.12 12.7252 10.75 12.478C10.38 12.2308 10.0916 11.8794 9.92127 11.4682C9.75097 11.0571 9.70642 10.6047 9.79323 10.1682C9.88005 9.73177 10.0943 9.33086 10.409 9.01619C10.7237 8.70152 11.1246 8.48723 11.561 8.40041C11.9975 8.3136 12.4499 8.35815 12.861 8.52845C13.2722 8.69875 13.6236 8.98714 13.8708 9.35715C14.118 9.72716 14.25 10.1622 14.25 10.6072C14.2494 11.2037 14.0122 11.7757 13.5903 12.1975C13.1685 12.6193 12.5966 12.8566 12 12.8572ZM12 9.85718C11.8517 9.85718 11.7067 9.90117 11.5833 9.98358C11.46 10.066 11.3639 10.1831 11.3071 10.3202C11.2503 10.4572 11.2355 10.608 11.2644 10.7535C11.2933 10.899 11.3648 11.0326 11.4697 11.1375C11.5746 11.2424 11.7082 11.3138 11.8537 11.3428C11.9992 11.3717 12.15 11.3569 12.287 11.3001C12.4241 11.2433 12.5412 11.1472 12.6236 11.0239C12.706 10.9005 12.75 10.7555 12.75 10.6072C12.75 10.4083 12.671 10.2175 12.5303 10.0768C12.3897 9.9362 12.1989 9.85718 12 9.85718Z" fill="currentColor"/>
<path d="M17.625 3.85718H6.75V1.60718H0.75V7.60718H6.75V5.35718H17.625C18.5201 5.35718 19.3785 5.71276 20.0115 6.34569C20.6444 6.97863 21 7.83707 21 8.73218C21 9.62728 20.6444 10.4857 20.0115 11.1187C19.3785 11.7516 18.5201 12.1072 17.625 12.1072H17.25V13.6072H17.625C18.9179 13.6072 20.1579 13.0936 21.0721 12.1793C21.9864 11.2651 22.5 10.0251 22.5 8.73218C22.5 7.43925 21.9864 6.19927 21.0721 5.28503C20.1579 4.37079 18.9179 3.85718 17.625 3.85718ZM5.25 6.10718H2.25V3.10718H5.25V6.10718Z" fill="currentColor"/>
</g>
<defs>
<clipPath id="clip0_11323_3760">
<rect width="24" height="24" fill="white" transform="translate(0 0.857178)"/>
</clipPath>
</defs>
</svg>
