<svg width="51" height="52" viewBox="0 0 51 52" fill="none" xmlns="http://www.w3.org/2000/svg">
<g clip-path="url(#clip0_10423_32613)">
<path d="M25.5 51.5C39.5833 51.5 51 40.0833 51 26C51 11.9167 39.5833 0.5 25.5 0.5C11.4167 0.5 0 11.9167 0 26C0 40.0833 11.4167 51.5 25.5 51.5Z" fill="#FFD7BF"/>
<path d="M25.6276 20.8911C19.7015 20.8732 8.3418 21.5247 8.3418 24.9344C8.3418 27.4508 19.7194 28.8613 25.6276 28.8523C31.4485 28.8523 42.656 28.1135 42.656 24.9344C42.656 21.2739 31.462 20.9045 25.6276 20.8911ZM22.4172 22.0665C22.1933 22.9307 22.9858 26.0448 22.9858 27.453C22.9858 27.453 10.3925 27.6904 10.3187 24.9478C10.3187 22.1739 22.4082 22.0665 22.4082 22.0665H22.4172ZM28.6052 22.0665C28.6052 22.0665 40.7239 22.1941 40.7239 24.9769C40.65 27.7374 28.3545 27.4396 28.3545 27.4396C28.3545 26.0247 28.8358 22.9239 28.6052 22.053V22.0665Z" fill="#FD853A"/>
<path d="M14.7637 12.7051V18.6543H22.3339L22.6041 38.2581L28.8252 38.123L28.292 18.3931H36.2693L35.9991 12.5789L14.7637 12.7051Z" fill="#FD853A"/>
</g>
<defs>
<clipPath id="clip0_10423_32613">
<rect width="51" height="51" fill="white" transform="translate(0 0.5)"/>
</clipPath>
</defs>
</svg>
