<svg width="24" height="25" viewBox="0 0 24 25" fill="none" xmlns="http://www.w3.org/2000/svg">
<path fill-rule="evenodd" clip-rule="evenodd" d="M5.07898 5.92614C8.87398 2.13614 15.044 2.17614 18.862 5.99514C22.682 9.81514 22.722 15.9881 18.926 19.7831C15.131 23.5781 8.95798 23.5391 5.13798 19.7191C4.06348 18.6491 3.25163 17.3445 2.76615 15.9079C2.28068 14.4712 2.13481 12.9416 2.33998 11.4391C2.3669 11.242 2.47105 11.0635 2.62952 10.9431C2.78798 10.8227 2.98779 10.7702 3.18498 10.7971C3.38217 10.8241 3.56059 10.9282 3.68098 11.0867C3.80138 11.2451 3.8539 11.445 3.82698 11.6421C3.65282 12.9154 3.77629 14.2118 4.18769 15.4293C4.59908 16.6469 5.2872 17.7524 6.19798 18.6591C9.44298 21.9031 14.666 21.9221 17.866 18.7231C21.065 15.5231 21.046 10.3001 17.802 7.05514C14.559 3.81314 9.33898 3.79214 6.13898 6.98714L6.88698 6.99014C6.98547 6.9906 7.08291 7.01045 7.17373 7.04857C7.26454 7.08668 7.34697 7.14231 7.41628 7.21228C7.4856 7.28225 7.54046 7.36519 7.57773 7.45636C7.61499 7.54753 7.63394 7.64515 7.63348 7.74364C7.63302 7.84213 7.61316 7.93957 7.57505 8.03038C7.53693 8.1212 7.4813 8.20362 7.41133 8.27294C7.34136 8.34226 7.25843 8.39712 7.16726 8.43439C7.07609 8.47165 6.97847 8.4906 6.87998 8.49014L4.33398 8.47814C4.13628 8.47709 3.94699 8.39801 3.80729 8.25812C3.66758 8.11823 3.58877 7.92884 3.58798 7.73114L3.57498 5.18714C3.57445 5.08865 3.59333 4.99102 3.63054 4.89982C3.66774 4.80863 3.72255 4.72565 3.79182 4.65564C3.86109 4.58562 3.94348 4.52994 4.03427 4.49176C4.12506 4.45358 4.22249 4.43366 4.32098 4.43314C4.41947 4.43261 4.5171 4.45149 4.6083 4.4887C4.69949 4.5259 4.78247 4.58071 4.85248 4.64998C4.9225 4.71925 4.97818 4.80164 5.01636 4.89243C5.05453 4.98322 5.07445 5.08065 5.07498 5.17914L5.07898 5.92614Z" fill="currentColor"/>
<path d="M12 8.10715C12.1989 8.10715 12.3897 8.18616 12.5303 8.32682C12.671 8.46747 12.75 8.65823 12.75 8.85715V12.5471L15.03 14.8271C15.1037 14.8958 15.1628 14.9786 15.2038 15.0706C15.2448 15.1626 15.2668 15.2619 15.2686 15.3626C15.2704 15.4633 15.2518 15.5634 15.2141 15.6567C15.1764 15.7501 15.1203 15.835 15.049 15.9062C14.9778 15.9774 14.893 16.0335 14.7996 16.0713C14.7062 16.109 14.6062 16.1275 14.5055 16.1257C14.4048 16.124 14.3055 16.1019 14.2135 16.0609C14.1215 16.0199 14.0387 15.9608 13.97 15.8871L11.543 13.4611C11.45 13.3682 11.3763 13.2578 11.326 13.1363C11.2757 13.0148 11.2499 12.8846 11.25 12.7531V8.85715C11.25 8.65823 11.329 8.46747 11.4697 8.32682C11.6103 8.18616 11.8011 8.10715 12 8.10715Z" fill="currentColor"/>
</svg>
