<svg width="24" height="25" viewBox="0 0 24 25" fill="none" xmlns="http://www.w3.org/2000/svg">
<path d="M7 18.8571V16.8571M12 18.8571V15.8571M17 18.8571V13.8571M2.5 12.8571C2.5 8.37915 2.5 6.13915 3.891 4.74815C5.282 3.35715 7.521 3.35715 12 3.35715C16.478 3.35715 18.718 3.35715 20.109 4.74815C21.5 6.13915 21.5 8.37815 21.5 12.8571C21.5 17.3351 21.5 19.5751 20.109 20.9661C18.718 22.3571 16.479 22.3571 12 22.3571C7.522 22.3571 5.282 22.3571 3.891 20.9661C2.5 19.5751 2.5 17.3361 2.5 12.8571Z" stroke="currentColor" stroke-width="1.5" stroke-linecap="round" stroke-linejoin="round"/>
<path d="M5.992 12.3432C8.147 12.4152 13.034 12.0902 15.814 7.67815M13.992 7.14515L15.868 6.84315C16.096 6.81415 16.432 6.99515 16.515 7.21015L17.01 8.84815" stroke="currentColor" stroke-width="1.5" stroke-linecap="round" stroke-linejoin="round"/>
</svg>
