<svg width="24" height="25" viewBox="0 0 24 25" fill="none" xmlns="http://www.w3.org/2000/svg">
<mask id="path-1-inside-1_10518_21745" fill="white">
<path d="M5.40078 7.75718C5.40078 7.04109 5.68525 6.35434 6.19159 5.84799C6.69794 5.34164 7.3847 5.05718 8.10078 5.05718C8.81687 5.05718 9.50362 5.34164 10.01 5.84799C10.5163 6.35434 10.8008 7.04109 10.8008 7.75718C10.8008 8.47326 10.5163 9.16002 10.01 9.66637C9.50362 10.1727 8.81687 10.4572 8.10078 10.4572C7.3847 10.4572 6.69794 10.1727 6.19159 9.66637C5.68525 9.16002 5.40078 8.47326 5.40078 7.75718ZM8.10078 3.85718C7.06644 3.85718 6.07446 4.26807 5.34306 4.99946C4.61167 5.73085 4.20078 6.72283 4.20078 7.75718C4.20078 8.79152 4.61167 9.7835 5.34306 10.5149C6.07446 11.2463 7.06644 11.6572 8.10078 11.6572C9.13513 11.6572 10.1271 11.2463 10.8585 10.5149C11.5899 9.7835 12.0008 8.79152 12.0008 7.75718C12.0008 6.72283 11.5899 5.73085 10.8585 4.99946C10.1271 4.26807 9.13513 3.85718 8.10078 3.85718ZM1.80078 15.2572C1.80078 14.6207 2.05364 14.0102 2.50372 13.5601C2.95381 13.11 3.56426 12.8572 4.20078 12.8572H12.0008C12.4187 12.8568 12.8294 12.9656 13.1924 13.1728C12.8596 13.4496 12.5564 13.7556 12.2828 14.0908C12.1904 14.0685 12.0958 14.0572 12.0008 14.0572H4.20078C3.88252 14.0572 3.5773 14.1836 3.35225 14.4087C3.12721 14.6337 3.00078 14.9389 3.00078 15.2572V15.3508L3.00918 15.4504C3.0743 16.0256 3.27949 16.5761 3.60678 17.0536C4.19118 17.8984 5.41638 18.8572 8.10078 18.8572C9.24558 18.8572 10.1252 18.6832 10.8032 18.4168C10.8136 18.8368 10.8616 19.2448 10.9472 19.6408C10.172 19.9012 9.23478 20.0572 8.10078 20.0572C5.08518 20.0572 3.46038 18.9532 2.61918 17.7364C2.17626 17.091 1.90004 16.3461 1.81518 15.568C1.80834 15.4981 1.80353 15.4281 1.80078 15.358V15.2572ZM15.6008 8.65718C15.6008 8.17979 15.7904 7.72195 16.128 7.38439C16.4656 7.04682 16.9234 6.85718 17.4008 6.85718C17.8782 6.85718 18.336 7.04682 18.6736 7.38439C19.0111 7.72195 19.2008 8.17979 19.2008 8.65718C19.2008 9.13457 19.0111 9.5924 18.6736 9.92997C18.336 10.2675 17.8782 10.4572 17.4008 10.4572C16.9234 10.4572 16.4656 10.2675 16.128 9.92997C15.7904 9.5924 15.6008 9.13457 15.6008 8.65718ZM17.4008 5.65718C16.6051 5.65718 15.8421 5.97325 15.2795 6.53586C14.7169 7.09847 14.4008 7.86153 14.4008 8.65718C14.4008 9.45283 14.7169 10.2159 15.2795 10.7785C15.8421 11.3411 16.6051 11.6572 17.4008 11.6572C18.1964 11.6572 18.9595 11.3411 19.5221 10.7785C20.0847 10.2159 20.4008 9.45283 20.4008 8.65718C20.4008 7.86153 20.0847 7.09847 19.5221 6.53586C18.9595 5.97325 18.1964 5.65718 17.4008 5.65718ZM14.4788 14.5876C14.5652 14.8955 14.5892 15.2177 14.5493 15.535C14.5095 15.8524 14.4066 16.1586 14.2468 16.4356C14.0869 16.7126 13.8732 16.9549 13.6184 17.1482C13.3636 17.3415 13.0727 17.4819 12.7628 17.5612L12.2084 17.7028C12.1683 18.1084 12.1723 18.5172 12.2204 18.922L12.6404 19.0216C12.9585 19.0968 13.258 19.2363 13.5203 19.4314C13.7826 19.6265 14.0023 19.8731 14.1659 20.1561C14.3295 20.4392 14.4336 20.7527 14.4717 21.0774C14.5098 21.4021 14.4812 21.7311 14.3876 22.0444L14.2352 22.5508C14.5456 22.7964 14.8796 23.0036 15.2372 23.1724L15.6272 22.7596C15.8517 22.5218 16.1224 22.3325 16.4228 22.2032C16.7231 22.0738 17.0467 22.0072 17.3737 22.0074C17.7007 22.0077 18.0242 22.0747 18.3244 22.2045C18.6245 22.3342 18.895 22.5239 19.1192 22.762L19.5236 23.1916C19.8756 23.0292 20.2044 22.83 20.51 22.594L20.3228 21.9268C20.2362 21.6187 20.212 21.2965 20.2518 20.979C20.2916 20.6615 20.3944 20.3552 20.5543 20.078C20.7142 19.8008 20.9279 19.5584 21.1828 19.365C21.4377 19.1717 21.7288 19.0312 22.0388 18.952L22.5908 18.8116C22.6309 18.4055 22.6269 17.9963 22.5788 17.5912L22.1612 17.4928C21.8429 17.4176 21.5433 17.2781 21.2809 17.0829C21.0185 16.8877 20.7987 16.641 20.6351 16.3578C20.4715 16.0746 20.3674 15.761 20.3294 15.4361C20.2914 15.1113 20.3202 14.7821 20.414 14.4688L20.5652 13.9636C20.2561 13.7184 19.9199 13.5094 19.5632 13.3408L19.1732 13.7536C18.9487 13.9914 18.6781 14.1808 18.3778 14.3103C18.0775 14.4397 17.7539 14.5064 17.4269 14.5063C17.0999 14.5062 16.7764 14.4393 16.4762 14.3096C16.176 14.18 15.9055 13.9903 15.6812 13.7524L15.2768 13.3228C14.9272 13.4842 14.5967 13.6842 14.2916 13.9192L14.4788 14.5876ZM17.3996 19.4572C17.0813 19.4572 16.7761 19.3307 16.5511 19.1057C16.326 18.8807 16.1996 18.5754 16.1996 18.2572C16.1996 17.9389 16.326 17.6337 16.5511 17.4087C16.7761 17.1836 17.0813 17.0572 17.3996 17.0572C17.7178 17.0572 18.0231 17.1836 18.2481 17.4087C18.4732 17.6337 18.5996 17.9389 18.5996 18.2572C18.5996 18.5754 18.4732 18.8807 18.2481 19.1057C18.0231 19.3307 17.7178 19.4572 17.3996 19.4572Z"/>
</mask>
<path d="M5.40078 7.75718C5.40078 7.04109 5.68525 6.35434 6.19159 5.84799C6.69794 5.34164 7.3847 5.05718 8.10078 5.05718C8.81687 5.05718 9.50362 5.34164 10.01 5.84799C10.5163 6.35434 10.8008 7.04109 10.8008 7.75718C10.8008 8.47326 10.5163 9.16002 10.01 9.66637C9.50362 10.1727 8.81687 10.4572 8.10078 10.4572C7.3847 10.4572 6.69794 10.1727 6.19159 9.66637C5.68525 9.16002 5.40078 8.47326 5.40078 7.75718ZM8.10078 3.85718C7.06644 3.85718 6.07446 4.26807 5.34306 4.99946C4.61167 5.73085 4.20078 6.72283 4.20078 7.75718C4.20078 8.79152 4.61167 9.7835 5.34306 10.5149C6.07446 11.2463 7.06644 11.6572 8.10078 11.6572C9.13513 11.6572 10.1271 11.2463 10.8585 10.5149C11.5899 9.7835 12.0008 8.79152 12.0008 7.75718C12.0008 6.72283 11.5899 5.73085 10.8585 4.99946C10.1271 4.26807 9.13513 3.85718 8.10078 3.85718ZM1.80078 15.2572C1.80078 14.6207 2.05364 14.0102 2.50372 13.5601C2.95381 13.11 3.56426 12.8572 4.20078 12.8572H12.0008C12.4187 12.8568 12.8294 12.9656 13.1924 13.1728C12.8596 13.4496 12.5564 13.7556 12.2828 14.0908C12.1904 14.0685 12.0958 14.0572 12.0008 14.0572H4.20078C3.88252 14.0572 3.5773 14.1836 3.35225 14.4087C3.12721 14.6337 3.00078 14.9389 3.00078 15.2572V15.3508L3.00918 15.4504C3.0743 16.0256 3.27949 16.5761 3.60678 17.0536C4.19118 17.8984 5.41638 18.8572 8.10078 18.8572C9.24558 18.8572 10.1252 18.6832 10.8032 18.4168C10.8136 18.8368 10.8616 19.2448 10.9472 19.6408C10.172 19.9012 9.23478 20.0572 8.10078 20.0572C5.08518 20.0572 3.46038 18.9532 2.61918 17.7364C2.17626 17.091 1.90004 16.3461 1.81518 15.568C1.80834 15.4981 1.80353 15.4281 1.80078 15.358V15.2572ZM15.6008 8.65718C15.6008 8.17979 15.7904 7.72195 16.128 7.38439C16.4656 7.04682 16.9234 6.85718 17.4008 6.85718C17.8782 6.85718 18.336 7.04682 18.6736 7.38439C19.0111 7.72195 19.2008 8.17979 19.2008 8.65718C19.2008 9.13457 19.0111 9.5924 18.6736 9.92997C18.336 10.2675 17.8782 10.4572 17.4008 10.4572C16.9234 10.4572 16.4656 10.2675 16.128 9.92997C15.7904 9.5924 15.6008 9.13457 15.6008 8.65718ZM17.4008 5.65718C16.6051 5.65718 15.8421 5.97325 15.2795 6.53586C14.7169 7.09847 14.4008 7.86153 14.4008 8.65718C14.4008 9.45283 14.7169 10.2159 15.2795 10.7785C15.8421 11.3411 16.6051 11.6572 17.4008 11.6572C18.1964 11.6572 18.9595 11.3411 19.5221 10.7785C20.0847 10.2159 20.4008 9.45283 20.4008 8.65718C20.4008 7.86153 20.0847 7.09847 19.5221 6.53586C18.9595 5.97325 18.1964 5.65718 17.4008 5.65718ZM14.4788 14.5876C14.5652 14.8955 14.5892 15.2177 14.5493 15.535C14.5095 15.8524 14.4066 16.1586 14.2468 16.4356C14.0869 16.7126 13.8732 16.9549 13.6184 17.1482C13.3636 17.3415 13.0727 17.4819 12.7628 17.5612L12.2084 17.7028C12.1683 18.1084 12.1723 18.5172 12.2204 18.922L12.6404 19.0216C12.9585 19.0968 13.258 19.2363 13.5203 19.4314C13.7826 19.6265 14.0023 19.8731 14.1659 20.1561C14.3295 20.4392 14.4336 20.7527 14.4717 21.0774C14.5098 21.4021 14.4812 21.7311 14.3876 22.0444L14.2352 22.5508C14.5456 22.7964 14.8796 23.0036 15.2372 23.1724L15.6272 22.7596C15.8517 22.5218 16.1224 22.3325 16.4228 22.2032C16.7231 22.0738 17.0467 22.0072 17.3737 22.0074C17.7007 22.0077 18.0242 22.0747 18.3244 22.2045C18.6245 22.3342 18.895 22.5239 19.1192 22.762L19.5236 23.1916C19.8756 23.0292 20.2044 22.83 20.51 22.594L20.3228 21.9268C20.2362 21.6187 20.212 21.2965 20.2518 20.979C20.2916 20.6615 20.3944 20.3552 20.5543 20.078C20.7142 19.8008 20.9279 19.5584 21.1828 19.365C21.4377 19.1717 21.7288 19.0312 22.0388 18.952L22.5908 18.8116C22.6309 18.4055 22.6269 17.9963 22.5788 17.5912L22.1612 17.4928C21.8429 17.4176 21.5433 17.2781 21.2809 17.0829C21.0185 16.8877 20.7987 16.641 20.6351 16.3578C20.4715 16.0746 20.3674 15.761 20.3294 15.4361C20.2914 15.1113 20.3202 14.7821 20.414 14.4688L20.5652 13.9636C20.2561 13.7184 19.9199 13.5094 19.5632 13.3408L19.1732 13.7536C18.9487 13.9914 18.6781 14.1808 18.3778 14.3103C18.0775 14.4397 17.7539 14.5064 17.4269 14.5063C17.0999 14.5062 16.7764 14.4393 16.4762 14.3096C16.176 14.18 15.9055 13.9903 15.6812 13.7524L15.2768 13.3228C14.9272 13.4842 14.5967 13.6842 14.2916 13.9192L14.4788 14.5876ZM17.3996 19.4572C17.0813 19.4572 16.7761 19.3307 16.5511 19.1057C16.326 18.8807 16.1996 18.5754 16.1996 18.2572C16.1996 17.9389 16.326 17.6337 16.5511 17.4087C16.7761 17.1836 17.0813 17.0572 17.3996 17.0572C17.7178 17.0572 18.0231 17.1836 18.2481 17.4087C18.4732 17.6337 18.5996 17.9389 18.5996 18.2572C18.5996 18.5754 18.4732 18.8807 18.2481 19.1057C18.0231 19.3307 17.7178 19.4572 17.3996 19.4572Z" stroke="currentColor" stroke-width="2" mask="url(#path-1-inside-1_10518_21745)"/>
</svg>
