<svg width="43" height="43" viewBox="0 0 43 43" fill="none" xmlns="http://www.w3.org/2000/svg">
<path d="M8.95832 30.4583V34.0417V8.95834V30.4583ZM10.062 35.8333C9.25932 35.8333 8.5761 35.5514 8.01232 34.9877C7.44855 34.4239 7.16666 33.7413 7.16666 32.9398V10.0602C7.16666 9.25994 7.44855 8.57731 8.01232 8.01234C8.5761 7.44856 9.25932 7.16667 10.062 7.16667H32.9398C33.7401 7.16667 34.4227 7.44856 34.9877 8.01234C35.5514 8.57612 35.8333 9.25934 35.8333 10.062V15.3331H34.0417V10.062C34.0417 9.73951 33.9383 9.47494 33.7317 9.2683C33.5251 9.06166 33.2611 8.95834 32.9398 8.95834H10.0602C9.73889 8.95834 9.47492 9.06166 9.26828 9.2683C9.06164 9.47494 8.95832 9.73951 8.95832 10.062V32.9398C8.95832 33.2611 9.06164 33.5251 9.26828 33.7317C9.47492 33.9384 9.73949 34.0417 10.062 34.0417H32.9398C33.2611 34.0417 33.5251 33.9384 33.7317 33.7317C33.9383 33.5251 34.0417 33.2611 34.0417 32.9398V27.6669H35.8333V32.9398C35.8333 33.7401 35.5514 34.4227 34.9877 34.9877C34.4239 35.5514 33.7413 35.8333 32.9398 35.8333H10.062ZM24.3953 28.6667C23.5927 28.6667 22.9094 28.3848 22.3457 27.821C21.7819 27.2572 21.5 26.5746 21.5 25.7731V17.2269C21.5 16.4266 21.7819 15.744 22.3457 15.179C22.9094 14.6152 23.5927 14.3333 24.3953 14.3333H34.7314C35.5317 14.3333 36.2144 14.6152 36.7793 15.179C37.3431 15.7428 37.625 16.426 37.625 17.2287V25.7731C37.625 26.5734 37.3431 27.256 36.7793 27.821C36.2155 28.3848 35.5329 28.6667 34.7314 28.6667H24.3953ZM34.7314 26.875C35.0528 26.875 35.3167 26.7717 35.5234 26.565C35.73 26.3584 35.8333 26.0944 35.8333 25.7731V17.2269C35.8333 16.9056 35.73 16.6416 35.5234 16.435C35.3167 16.2283 35.0528 16.125 34.7314 16.125H24.3935C24.0722 16.125 23.8083 16.2283 23.6016 16.435C23.395 16.6416 23.2917 16.9062 23.2917 17.2287V25.7731C23.2917 26.0944 23.395 26.3584 23.6016 26.565C23.8083 26.7717 24.0728 26.875 24.3953 26.875H34.7314ZM28.6667 24.1875C29.4132 24.1875 30.048 23.9265 30.5712 23.4045C31.0944 22.8826 31.3554 22.2477 31.3542 21.5C31.353 20.7523 31.092 20.118 30.5712 19.5973C30.0504 19.0765 29.4156 18.8149 28.6667 18.8125C27.9177 18.8101 27.2835 19.0717 26.7639 19.5973C26.2443 20.1228 25.9827 20.7571 25.9792 21.5C25.9756 22.2429 26.2372 22.8778 26.7639 23.4045C27.2907 23.9313 27.9249 24.1923 28.6667 24.1875Z" fill="#FD853A"/>
</svg>
