<svg width="24" height="25" viewBox="0 0 24 25" fill="none" xmlns="http://www.w3.org/2000/svg">
<path d="M12 19.8571H6C5.20435 19.8571 4.44129 19.5411 3.87868 18.9785C3.31607 18.4159 3 17.6528 3 16.8571V8.85715C3 8.0615 3.31607 7.29844 3.87868 6.73583C4.44129 6.17322 5.20435 5.85715 6 5.85715H18C18.7956 5.85715 19.5587 6.17322 20.1213 6.73583C20.6839 7.29844 21 8.0615 21 8.85715V13.3571M3 10.8571H21M7 15.8571H7.01M11 15.8571H13M16 19.8571H22M16 19.8571L19 16.8571M16 19.8571L19 22.8571" stroke="currentColor" stroke-width="1.5" stroke-linecap="round" stroke-linejoin="round"/>
</svg>
